<svg width="32" height="32" viewBox="0 0 32 32" fill="none" xmlns="http://www.w3.org/2000/svg">
<path d="M4.21429 31C2.43909 31 1 29.4502 1 27.5385V4.46154C1 2.54978 2.43908 1 4.21429 1H21.3571C21.9489 1 22.4286 1.5166 22.4286 2.15385C22.4286 2.7911 21.9489 3.30769 21.3571 3.30769H4.21429C3.62255 3.30769 3.14286 3.82429 3.14286 4.46154V27.5385C3.14286 28.1757 3.62255 28.6923 4.21429 28.6923H25.6429C26.2346 28.6923 26.7143 28.1757 26.7143 27.5385V16C26.7143 15.3627 27.194 14.8462 27.7857 14.8462C28.3774 14.8462 28.8571 15.3627 28.8571 16V27.5385C28.8571 29.4502 27.4181 31 25.6429 31H4.21429Z" fill="#0A2647"/>
<path d="M15.6862 21.4313L30.6862 5.27743C31.1046 4.82683 31.1046 4.09625 30.6862 3.64565C30.2678 3.19504 29.5894 3.19504 29.171 3.64565L14.9286 18.9836L9.25761 12.8764C8.8392 12.4258 8.1608 12.4258 7.74239 12.8764C7.32397 13.327 7.32397 14.0576 7.74239 14.5082L14.171 21.4313C14.5894 21.8819 15.2678 21.8819 15.6862 21.4313Z" fill="#0A2647"/>
<path d="M4.21429 31C2.43909 31 1 29.4502 1 27.5385V4.46154C1 2.54978 2.43908 1 4.21429 1H21.3571C21.9489 1 22.4286 1.5166 22.4286 2.15385C22.4286 2.7911 21.9489 3.30769 21.3571 3.30769H4.21429C3.62255 3.30769 3.14286 3.82429 3.14286 4.46154V27.5385C3.14286 28.1757 3.62255 28.6923 4.21429 28.6923H25.6429C26.2346 28.6923 26.7143 28.1757 26.7143 27.5385V16C26.7143 15.3627 27.194 14.8462 27.7857 14.8462C28.3774 14.8462 28.8571 15.3627 28.8571 16V27.5385C28.8571 29.4502 27.4181 31 25.6429 31H4.21429Z" stroke="#0A2647" stroke-linecap="round" stroke-linejoin="round"/>
<path d="M15.6862 21.4313L30.6862 5.27743C31.1046 4.82683 31.1046 4.09625 30.6862 3.64565C30.2678 3.19504 29.5894 3.19504 29.171 3.64565L14.9286 18.9836L9.25761 12.8764C8.8392 12.4258 8.1608 12.4258 7.74239 12.8764C7.32397 13.327 7.32397 14.0576 7.74239 14.5082L14.171 21.4313C14.5894 21.8819 15.2678 21.8819 15.6862 21.4313Z" stroke="#0A2647" stroke-linecap="round" stroke-linejoin="round"/>
</svg>
